<svg width="262" height="34" viewBox="0 0 262 34" fill="none" xmlns="http://www.w3.org/2000/svg">
<path d="M7.16 5.28V27.8H17.96L17.28 33H0.6V5.28H7.16ZM38.3219 33H32.8419L32.5619 30.32C31.0152 32.56 28.8685 33.68 26.1219 33.68C24.1752 33.68 22.6952 33.0933 21.6819 31.92C20.6952 30.7467 20.2019 29.1067 20.2019 27V11.76H26.5219V26.2C26.5219 27.24 26.6819 27.9733 27.0019 28.4C27.3485 28.8 27.8685 29 28.5619 29C29.8952 29 31.0419 28.1733 32.0019 26.52V11.76H38.3219V33ZM52.4925 11.08C53.9592 11.08 55.2792 11.2933 56.4525 11.72C57.6258 12.1467 58.7325 12.8 59.7725 13.68L57.0525 17.44C55.7192 16.4267 54.3725 15.92 53.0125 15.92C51.5992 15.92 50.5325 16.44 49.8125 17.48C49.0925 18.52 48.7325 20.2 48.7325 22.52C48.7325 24.76 49.0925 26.3467 49.8125 27.28C50.5325 28.2133 51.5725 28.68 52.9325 28.68C53.6525 28.68 54.3058 28.5733 54.8925 28.36C55.4792 28.12 56.1858 27.7467 57.0125 27.24L59.7725 31.16C57.6658 32.84 55.2792 33.68 52.6125 33.68C50.4525 33.68 48.5858 33.2267 47.0125 32.32C45.4392 31.3867 44.2258 30.0933 43.3725 28.44C42.5192 26.76 42.0925 24.8 42.0925 22.56C42.0925 20.32 42.5192 18.3333 43.3725 16.6C44.2258 14.8667 45.4392 13.52 47.0125 12.56C48.5858 11.5733 50.4125 11.08 52.4925 11.08ZM78.9225 26.84C78.9225 27.64 79.0292 28.2267 79.2425 28.6C79.4825 28.9733 79.8558 29.2533 80.3625 29.44L79.0425 33.56C77.7358 33.4533 76.6692 33.1733 75.8425 32.72C75.0158 32.24 74.3758 31.4933 73.9225 30.48C72.5358 32.6133 70.4025 33.68 67.5225 33.68C65.4158 33.68 63.7358 33.0667 62.4825 31.84C61.2292 30.6133 60.6025 29.0133 60.6025 27.04C60.6025 24.72 61.4558 22.9467 63.1625 21.72C64.8692 20.4933 67.3358 19.88 70.5625 19.88H72.7225V18.96C72.7225 17.7067 72.4558 16.8533 71.9225 16.4C71.3892 15.92 70.4558 15.68 69.1225 15.68C68.4292 15.68 67.5892 15.7867 66.6025 16C65.6158 16.1867 64.6025 16.4533 63.5625 16.8L62.1225 12.64C63.4558 12.1333 64.8158 11.7467 66.2025 11.48C67.6158 11.2133 68.9225 11.08 70.1225 11.08C73.1625 11.08 75.3892 11.7067 76.8025 12.96C78.2158 14.2133 78.9225 16.0933 78.9225 18.6V26.84ZM69.3625 29.16C70.8025 29.16 71.9225 28.48 72.7225 27.12V23.36H71.1625C69.7225 23.36 68.6425 23.6133 67.9225 24.12C67.2292 24.6267 66.8825 25.4133 66.8825 26.48C66.8825 27.3333 67.0958 28 67.5225 28.48C67.9758 28.9333 68.5892 29.16 69.3625 29.16ZM91.0459 11.08C92.5659 11.08 93.9926 11.3067 95.3259 11.76C96.6593 12.2133 97.8326 12.8533 98.8459 13.68L96.5259 17.24C94.7926 16.1467 93.0459 15.6 91.2859 15.6C90.4593 15.6 89.8193 15.7467 89.3659 16.04C88.9393 16.3067 88.7259 16.6933 88.7259 17.2C88.7259 17.6 88.8193 17.9333 89.0059 18.2C89.2193 18.44 89.6326 18.6933 90.2459 18.96C90.8593 19.2267 91.8059 19.5467 93.0859 19.92C95.2993 20.56 96.9393 21.4 98.0059 22.44C99.0993 23.4533 99.6459 24.8667 99.6459 26.68C99.6459 28.12 99.2326 29.3733 98.4059 30.44C97.5793 31.48 96.4459 32.28 95.0059 32.84C93.5659 33.4 91.9659 33.68 90.2059 33.68C88.4193 33.68 86.7526 33.4 85.2059 32.84C83.6859 32.28 82.3926 31.5067 81.3259 30.52L84.4059 27.08C86.1926 28.4667 88.0726 29.16 90.0459 29.16C91.0059 29.16 91.7526 28.9867 92.2859 28.64C92.8459 28.2933 93.1259 27.8 93.1259 27.16C93.1259 26.6533 93.0193 26.2533 92.8059 25.96C92.5926 25.6667 92.1793 25.4 91.5659 25.16C90.9526 24.8933 89.9793 24.5733 88.6459 24.2C86.5393 23.5867 84.9659 22.7333 83.9259 21.64C82.8859 20.5467 82.3659 19.1867 82.3659 17.56C82.3659 16.3333 82.7126 15.24 83.4059 14.28C84.1259 13.2933 85.1393 12.52 86.4459 11.96C87.7793 11.3733 89.3126 11.08 91.0459 11.08ZM121.474 5.28C125.127 5.28 127.967 6.04 129.994 7.56C132.021 9.08 133.034 11.3333 133.034 14.32C133.034 17.44 132.034 19.8 130.034 21.4C128.061 22.9733 125.407 23.76 122.074 23.76H119.074V33H112.514V5.28H121.474ZM121.514 19.04C123.061 19.04 124.234 18.68 125.034 17.96C125.861 17.2133 126.274 16 126.274 14.32C126.274 11.4133 124.647 9.96 121.394 9.96H119.074V19.04H121.514ZM142.698 11.76V33H136.378V11.76H142.698ZM139.498 0.559998C140.592 0.559998 141.485 0.906665 142.178 1.6C142.898 2.26666 143.258 3.12 143.258 4.16C143.258 5.2 142.898 6.06667 142.178 6.76C141.485 7.42667 140.592 7.76 139.498 7.76C138.405 7.76 137.512 7.42667 136.818 6.76C136.125 6.06667 135.778 5.2 135.778 4.16C135.778 3.12 136.125 2.26666 136.818 1.6C137.512 0.906665 138.405 0.559998 139.498 0.559998ZM160.108 11.08C161.948 11.08 163.388 11.64 164.428 12.76C165.468 13.88 165.988 15.4533 165.988 17.48V33H159.668V18.56C159.668 17.4933 159.494 16.76 159.148 16.36C158.828 15.9333 158.334 15.72 157.668 15.72C156.388 15.72 155.161 16.64 153.988 18.48V33H147.668V11.76H153.188L153.628 14.28C154.534 13.2133 155.508 12.4133 156.548 11.88C157.614 11.3467 158.801 11.08 160.108 11.08ZM183.193 11.08C185.033 11.08 186.473 11.64 187.513 12.76C188.553 13.88 189.073 15.4533 189.073 17.48V33H182.753V18.56C182.753 17.4933 182.58 16.76 182.233 16.36C181.887 15.9333 181.393 15.72 180.753 15.72C179.473 15.72 178.247 16.6267 177.073 18.44V33H170.753V3.32L177.073 2.68V14.04C177.953 13.0533 178.887 12.32 179.873 11.84C180.86 11.3333 181.967 11.08 183.193 11.08ZM212.359 21.96C212.359 22.84 212.319 23.6 212.239 24.24H199.079C199.293 26.0267 199.799 27.28 200.599 28C201.399 28.72 202.506 29.08 203.919 29.08C204.773 29.08 205.599 28.9333 206.399 28.64C207.199 28.32 208.066 27.84 208.999 27.2L211.599 30.72C209.119 32.6933 206.359 33.68 203.319 33.68C199.879 33.68 197.239 32.6667 195.399 30.64C193.559 28.6133 192.639 25.8933 192.639 22.48C192.639 20.32 193.026 18.3867 193.799 16.68C194.573 14.9467 195.706 13.5867 197.199 12.6C198.693 11.5867 200.479 11.08 202.559 11.08C205.626 11.08 208.026 12.04 209.759 13.96C211.493 15.88 212.359 18.5467 212.359 21.96ZM206.159 20.16C206.106 16.9067 204.959 15.28 202.719 15.28C201.626 15.28 200.773 15.68 200.159 16.48C199.573 17.28 199.213 18.6 199.079 20.44H206.159V20.16ZM222.23 11.76V33H215.91V11.76H222.23ZM219.03 0.559998C220.123 0.559998 221.016 0.906665 221.71 1.6C222.43 2.26666 222.79 3.12 222.79 4.16C222.79 5.2 222.43 6.06667 221.71 6.76C221.016 7.42667 220.123 7.76 219.03 7.76C217.936 7.76 217.043 7.42667 216.35 6.76C215.656 6.06667 215.31 5.2 215.31 4.16C215.31 3.12 215.656 2.26666 216.35 1.6C217.043 0.906665 217.936 0.559998 219.03 0.559998ZM238.719 11.16C239.492 11.16 240.199 11.2533 240.839 11.44L239.839 17.56C239.039 17.3733 238.399 17.28 237.919 17.28C236.665 17.28 235.705 17.72 235.039 18.6C234.399 19.4533 233.892 20.7467 233.519 22.48V33H227.199V11.76H232.719L233.239 15.88C233.719 14.4133 234.439 13.2667 235.399 12.44C236.385 11.5867 237.492 11.16 238.719 11.16ZM251.243 11.08C254.496 11.08 257.043 12.08 258.883 14.08C260.723 16.0533 261.643 18.8267 261.643 22.4C261.643 24.6667 261.216 26.6533 260.363 28.36C259.536 30.04 258.336 31.3467 256.763 32.28C255.216 33.2133 253.376 33.68 251.243 33.68C248.016 33.68 245.469 32.6933 243.603 30.72C241.763 28.72 240.843 25.9333 240.843 22.36C240.843 20.0933 241.256 18.12 242.083 16.44C242.936 14.7333 244.136 13.4133 245.683 12.48C247.256 11.5467 249.109 11.08 251.243 11.08ZM251.243 15.72C249.963 15.72 249.003 16.2667 248.363 17.36C247.723 18.4267 247.403 20.0933 247.403 22.36C247.403 24.68 247.709 26.3733 248.323 27.44C248.963 28.5067 249.936 29.04 251.243 29.04C252.523 29.04 253.483 28.5067 254.123 27.44C254.763 26.3467 255.083 24.6667 255.083 22.4C255.083 20.08 254.763 18.3867 254.123 17.32C253.509 16.2533 252.549 15.72 251.243 15.72Z" fill="black"/>
</svg>
